<?xml version="1.0" encoding="UTF-8"?>
<!DOCTYPE svg PUBLIC "-//W3C//DTD SVG 1.1//EN" "http://www.w3.org/Graphics/SVG/1.1/DTD/svg11.dtd">
<svg xmlns="http://www.w3.org/2000/svg" version="1.1" width="3000px" height="3000px" style="shape-rendering:geometricPrecision; text-rendering:geometricPrecision; image-rendering:optimizeQuality; fill-rule:evenodd; clip-rule:evenodd" xmlns:xlink="http://www.w3.org/1999/xlink">
<g><path style="opacity:0.999" fill="#f24e1e" d="M 1499.5,223.5 C 1499.5,506.833 1499.5,790.167 1499.5,1073.5C 1349.17,1073.5 1198.83,1073.5 1048.5,1073.5C 915.883,1063.55 809.716,1005.88 730,900.5C 656.652,796.441 632.652,681.774 658,556.5C 693.368,414.545 777.868,314.045 911.5,255C 954.476,237.423 999.143,227.089 1045.5,224C 1196.83,223.5 1348.17,223.333 1499.5,223.5 Z"/></g>
<g><path style="opacity:0.999" fill="#fe7162" d="M 1499.5,223.5 C 1650.5,223.333 1801.5,223.5 1952.5,224C 2088.63,235.986 2196.13,297.153 2275,407.5C 2347.23,516.42 2367.23,634.42 2335,761.5C 2297.86,887.299 2220.36,978.799 2102.5,1036C 2053.77,1058.31 2002.77,1071.14 1949.5,1074.5C 1929.17,1074.5 1908.83,1074.5 1888.5,1074.5C 1758.83,1074.5 1629.17,1074.5 1499.5,1074.5C 1349.17,1074.5 1198.83,1074.5 1048.5,1074.5C 1048.5,1074.17 1048.5,1073.83 1048.5,1073.5C 1198.83,1073.5 1349.17,1073.5 1499.5,1073.5C 1499.5,790.167 1499.5,506.833 1499.5,223.5 Z"/></g>
<g><path style="opacity:0.998" fill="#a159fe" d="M 1048.5,1074.5 C 1198.83,1074.5 1349.17,1074.5 1499.5,1074.5C 1499.5,1203.83 1499.5,1333.17 1499.5,1462.5C 1499.5,1487.17 1499.5,1511.83 1499.5,1536.5C 1499.5,1665.5 1499.5,1794.5 1499.5,1923.5C 1349.11,1923.66 1198.78,1923.5 1048.5,1923C 1049.42,1923.28 1050.08,1923.78 1050.5,1924.5C 1049.83,1924.5 1049.17,1924.5 1048.5,1924.5C 916.74,1914.07 810.907,1856.74 731,1752.5C 653.474,1642.52 630.474,1521.86 662,1390.5C 698.952,1262.89 777.119,1170.05 896.5,1112C 944.816,1090.04 995.482,1077.54 1048.5,1074.5 Z"/></g>
<g><path style="opacity:0.997" fill="#1abcfd" d="M 1888.5,1074.5 C 1908.83,1074.5 1929.17,1074.5 1949.5,1074.5C 2084.59,1085.44 2192.09,1145.11 2272,1253.5C 2348.65,1367.04 2368.65,1490.04 2332,1622.5C 2290.53,1749.92 2208.37,1840.42 2085.5,1894C 1970.71,1938.33 1857.04,1935.66 1744.5,1886C 1641.28,1836.12 1568.45,1757.95 1526,1651.5C 1512.24,1614.19 1503.41,1575.85 1499.5,1536.5C 1499.5,1511.83 1499.5,1487.17 1499.5,1462.5C 1512.33,1340.32 1566.33,1240.82 1661.5,1164C 1728.47,1112.5 1804.14,1082.67 1888.5,1074.5 Z"/></g>
<g><path style="opacity:0.994" fill="#b54afe" d="M 1499.5,1923.5 C 1499.5,1923.83 1499.5,1924.17 1499.5,1924.5C 1349.83,1924.5 1200.17,1924.5 1050.5,1924.5C 1050.08,1923.78 1049.42,1923.28 1048.5,1923C 1198.78,1923.5 1349.11,1923.66 1499.5,1923.5 Z"/></g>
<g><path style="opacity:0.998" fill="#0acf82" d="M 1048.5,1925.5 C 1198.79,1926.5 1349.13,1926.83 1499.5,1926.5C 1499.98,2081.18 1499.48,2235.85 1498,2390.5C 1480.96,2530.51 1413.46,2638.35 1295.5,2714C 1189.34,2776.19 1076.67,2791.52 957.5,2760C 833.761,2721.92 743.594,2644.75 687,2528.5C 647.819,2441.38 638.153,2351.05 658,2257.5C 691.553,2121.3 771.386,2022.8 897.5,1962C 945.474,1940.1 995.808,1927.94 1048.5,1925.5 Z"/></g>
<g><path style="opacity:0.999" fill="#2ecc86" d="M 1048.5,1925.5 C 1048.5,1925.17 1048.5,1924.83 1048.5,1924.5C 1049.17,1924.5 1049.83,1924.5 1050.5,1924.5C 1200.17,1924.5 1349.83,1924.5 1499.5,1924.5C 1499.5,1925.17 1499.5,1925.83 1499.5,1926.5C 1349.13,1926.83 1198.79,1926.5 1048.5,1925.5 Z"/></g>
</svg>
